<svg width="20" height="15" viewBox="0 0 20 15" fill="none" xmlns="http://www.w3.org/2000/svg">
<g clip-path="url(#clip0_401_296)">
<path d="M12.593 0.0925293H18.148C19.171 0.0925293 20 0.921529 20 1.94453V7.87053C20 8.89353 19.171 9.72253 18.148 9.72253H12.963V10.0925C12.963 11.5245 14.124 12.6855 15.556 12.6855C16.169 12.6855 16.667 13.1825 16.667 13.7965C16.667 14.4095 16.169 14.9075 15.556 14.9075C12.898 14.9045 10.744 12.7505 10.741 10.0925V1.94453C10.741 0.921529 11.57 0.0925293 12.593 0.0925293ZM12.963 7.49953H17.778V2.31453H12.963V7.49953ZM1.852 0.0925293H7.407C8.43 0.0925293 9.259 0.921529 9.259 1.94453V7.87053C9.259 8.89353 8.43 9.72253 7.407 9.72253H2.222V10.0925C2.222 11.5245 3.383 12.6855 4.815 12.6855C5.428 12.6855 5.926 13.1825 5.926 13.7965C5.926 14.4095 5.428 14.9075 4.815 14.9075C2.157 14.9045 0.003 12.7505 0 10.0925V1.94453C0 0.921529 0.829 0.0925293 1.852 0.0925293ZM2.222 7.49953H7.037V2.31453H2.222V7.49953Z" fill="#FF5101"/>
</g>
<defs>
<clipPath id="clip0_401_296">
<rect width="20" height="15" fill="white"/>
</clipPath>
</defs>
</svg>
