<svg width="20" height="20" viewBox="0 0 20 20" fill="none" xmlns="http://www.w3.org/2000/svg">
<g clip-path="url(#clip0_401_348)">
<path d="M10 0C4.477 0 0 4.477 0 10C0 15.523 4.477 20 10 20C15.523 20 20 15.523 20 10C19.994 4.48 15.52 0.006 10 0ZM10 18.462C5.327 18.462 1.538 14.673 1.538 10C1.538 5.327 5.327 1.538 10 1.538C14.673 1.538 18.462 5.327 18.462 10C18.456 14.671 14.671 18.456 10 18.462ZM16.154 10C16.154 10.425 15.809 10.769 15.385 10.769H10C9.575 10.769 9.231 10.425 9.231 10V4.615C9.231 4.191 9.575 3.846 10 3.846C10.425 3.846 10.769 4.191 10.769 4.615V9.231H15.385C15.809 9.231 16.154 9.575 16.154 10Z" fill="white"/>
</g>
<defs>
<clipPath id="clip0_401_348">
<rect width="20" height="20" fill="white"/>
</clipPath>
</defs>
</svg>
