<svg width="20" height="20" viewBox="0 0 20 20" fill="none" xmlns="http://www.w3.org/2000/svg">
<g clip-path="url(#clip0_401_337)">
<path d="M11.934 10.924C11.8 10.79 11.619 10.714 11.429 10.714C11.239 10.714 11.058 10.79 10.924 10.924L9.28601 12.562L7.43901 10.715L9.07701 9.077C9.35601 8.798 9.35601 8.346 9.07701 8.067C8.79801 7.788 8.34601 7.788 8.06601 8.067L6.42901 9.705L4.79101 8.067C4.51201 7.788 4.06001 7.788 3.78101 8.067C3.50201 8.346 3.50201 8.798 3.78101 9.077L4.34801 9.643L2.26601 11.725C1.73001 12.261 1.42901 12.987 1.42901 13.745C1.42901 14.503 1.73001 15.23 2.26601 15.766L2.74601 16.245L0.209006 18.781C-0.0699942 19.06 -0.0699942 19.513 0.209006 19.792C0.488006 20.071 0.941006 20.071 1.22001 19.792L3.75601 17.255L4.23501 17.735C4.77101 18.271 5.49801 18.572 6.25601 18.572C7.01401 18.572 7.74001 18.271 8.27601 17.735L10.358 15.653L10.924 16.22C11.203 16.499 11.655 16.499 11.934 16.22C12.213 15.941 12.213 15.489 11.934 15.209L10.296 13.572L11.934 11.934C12.068 11.801 12.144 11.619 12.144 11.429C12.144 11.24 12.068 11.058 11.934 10.924ZM7.26601 16.727C6.70801 17.285 5.80401 17.285 5.24601 16.727L3.27601 14.755C2.71901 14.197 2.71901 13.293 3.27601 12.735L5.35801 10.653L9.34801 14.643L7.26601 16.727ZM19.791 0.209C19.657 0.075 19.476 0 19.286 0C19.097 0 18.915 0.075 18.781 0.209L16.245 2.746L15.766 2.266C14.649 1.152 12.841 1.152 11.725 2.266L9.64301 4.348L9.07701 3.781C8.79801 3.502 8.34601 3.502 8.06601 3.781C7.78701 4.06 7.78701 4.513 8.06601 4.792L15.209 11.934C15.488 12.214 15.941 12.214 16.22 11.934C16.499 11.655 16.499 11.203 16.22 10.924L15.653 10.358L17.735 8.276C18.271 7.741 18.572 7.014 18.572 6.256C18.572 5.498 18.271 4.771 17.735 4.235L17.255 3.756L19.791 1.22C19.926 1.086 20.001 0.904 20.001 0.715C20.001 0.525 19.926 0.343 19.791 0.209ZM16.725 7.263L14.643 9.348L10.653 5.358L12.735 3.276C13.293 2.719 14.197 2.719 14.755 3.276L16.725 5.241C16.994 5.509 17.145 5.873 17.145 6.253C17.145 6.633 16.994 6.998 16.725 7.266V7.263Z" fill="white"/>
</g>
<defs>
<clipPath id="clip0_401_337">
<rect width="20" height="20" fill="white"/>
</clipPath>
</defs>
</svg>
