<svg width="20" height="20" viewBox="0 0 20 20" fill="none" xmlns="http://www.w3.org/2000/svg">
<g clip-path="url(#clip0_401_326)">
<path d="M9.99902 5.41192C7.46598 5.41192 5.41192 7.46598 5.41192 9.99902C5.41192 12.5321 7.46598 14.5851 9.99902 14.5851C12.5321 14.5851 14.5851 12.5321 14.5851 9.99902C14.5821 7.46697 12.5311 5.4149 9.99902 5.41192ZM9.99902 13.0568C8.30966 13.0568 6.94128 11.6874 6.94128 9.99902C6.94128 8.30966 8.30966 6.94128 9.99902 6.94128C11.6874 6.94128 13.0568 8.30966 13.0568 9.99902C13.0568 11.6874 11.6874 13.0568 9.99902 13.0568ZM18.407 10.2047C18.411 10.0676 18.411 9.92946 18.407 9.79232L19.8331 8.01154C19.9841 7.82174 20.0368 7.57131 19.9742 7.33679C19.7406 6.45832 19.3909 5.61464 18.9347 4.82859C18.8135 4.61991 18.6008 4.48078 18.3613 4.45296L16.0946 4.20055C16.0002 4.10117 15.9048 4.00578 15.8084 3.91435L15.5411 1.64167C15.5123 1.40218 15.3732 1.18952 15.1645 1.06828C14.3774 0.61315 13.5337 0.263353 12.6563 0.0298247C12.4208 -0.0327808 12.1713 0.0198873 11.9815 0.171929L10.2047 1.59H9.79232L8.01154 0.166961C7.82174 0.0159124 7.57131 -0.0367558 7.33679 0.0258498C6.45832 0.260372 5.61464 0.609175 4.82859 1.0653C4.61991 1.18654 4.48078 1.3992 4.45296 1.63869L4.20055 3.90938C4.10117 4.00379 4.00578 4.09919 3.91435 4.19558L1.64167 4.45693C1.40218 4.48476 1.18952 4.62388 1.06828 4.83356C0.61315 5.61961 0.263353 6.46329 0.0298247 7.34176C-0.0327808 7.57628 0.0198873 7.8267 0.171929 8.01551L1.59 9.79232V10.2047L0.166961 11.9865C0.0159124 12.1753 -0.0367558 12.4257 0.0258498 12.6603C0.259379 13.5397 0.609175 14.3824 1.0653 15.1694C1.18654 15.3771 1.3992 15.5173 1.63869 15.5441L3.90541 15.7965C3.99981 15.8959 4.09621 15.9913 4.19161 16.0837L4.45693 18.3554C4.48476 18.5959 4.62388 18.8085 4.83356 18.9288C5.61961 19.3849 6.46329 19.7337 7.34176 19.9672C7.57628 20.0298 7.8267 19.9772 8.01551 19.8251L9.79232 18.407C9.92946 18.411 10.0676 18.411 10.2047 18.407L11.9865 19.8331C12.1753 19.9841 12.4257 20.0368 12.6603 19.9742C13.5397 19.7406 14.3824 19.3909 15.1694 18.9347C15.3771 18.8135 15.5173 18.6008 15.5441 18.3613L15.7965 16.0946C15.8959 16.0002 15.9913 15.9048 16.0837 15.8084L18.3554 15.5411C18.5959 15.5123 18.8085 15.3732 18.9288 15.1645C19.3849 14.3774 19.7337 13.5337 19.9672 12.6563C20.0298 12.4208 19.9772 12.1713 19.8251 11.9815L18.407 10.2047ZM16.8687 9.58363C16.8846 9.85989 16.8846 10.1371 16.8687 10.4134C16.8578 10.6022 16.9164 10.789 17.0347 10.9371L18.3911 12.6314C18.2351 13.1253 18.0364 13.6053 17.7959 14.0644L15.6365 14.3089C15.4477 14.3297 15.2748 14.4202 15.1486 14.5613C14.9647 14.768 14.769 14.9637 14.5623 15.1476C14.4212 15.2738 14.3307 15.4477 14.3099 15.6355L14.0704 17.7929C13.6113 18.0334 13.1313 18.2331 12.6364 18.3882L10.9421 17.0327C10.8059 16.9234 10.638 16.8648 10.4641 16.8648H10.4184C10.1421 16.8817 9.86486 16.8817 9.5886 16.8648C9.39979 16.8538 9.21297 16.9125 9.0649 17.0317L7.3666 18.3882C6.87172 18.2321 6.39174 18.0334 5.93264 17.7929L5.68818 15.6365C5.66731 15.4477 5.57787 15.2748 5.43577 15.1486C5.22907 14.9647 5.0333 14.769 4.84946 14.5623C4.72425 14.4212 4.55034 14.3307 4.36253 14.3099L2.20413 14.0694C1.96364 13.6103 1.76489 13.1303 1.60888 12.6354L2.96533 10.9411C3.08359 10.793 3.14321 10.6062 3.13129 10.4174C3.11539 10.1411 3.11539 9.86387 3.13129 9.58761C3.14321 9.3988 3.08359 9.21198 2.96533 9.06391L1.60888 7.3666C1.76489 6.87172 1.96364 6.39174 2.20413 5.93264L4.36153 5.68818C4.54935 5.66731 4.72326 5.57787 4.84847 5.43577C5.03231 5.22907 5.22808 5.0333 5.43477 4.84946C5.57688 4.72326 5.66731 4.54935 5.68818 4.36153L5.92767 2.20413C6.38777 1.96364 6.86675 1.76489 7.36163 1.60888L9.05695 2.96533C9.20403 3.08359 9.39085 3.14321 9.57966 3.13129C9.85592 3.11539 10.1332 3.11539 10.4094 3.13129C10.5982 3.14321 10.7851 3.08359 10.9331 2.96533L12.6314 1.60888C13.1253 1.76489 13.6053 1.96364 14.0644 2.20413L14.3089 4.36153C14.3297 4.54935 14.4202 4.72326 14.5613 4.84847C14.768 5.03231 14.9637 5.22808 15.1476 5.43477C15.2738 5.57688 15.4477 5.66631 15.6355 5.68718L17.7929 5.92767C18.0334 6.38678 18.2331 6.86576 18.3882 7.36064L17.0327 9.05596C16.9125 9.20502 16.8538 9.39284 16.8658 9.58363H16.8687Z" fill="white"/>
</g>
<defs>
<clipPath id="clip0_401_326">
<rect width="20" height="20" fill="white"/>
</clipPath>
</defs>
</svg>
