<svg width="20" height="17" viewBox="0 0 20 17" fill="none" xmlns="http://www.w3.org/2000/svg">
<g clip-path="url(#clip0_401_359)">
<path d="M19.9653 16.1795C19.9653 16.6033 19.6219 16.9467 19.1971 16.9467H0.7682C0.343407 16.9467 0 16.6033 0 16.1795V0.821423C0 0.39663 0.343407 0.0532227 0.7682 0.0532227C1.192 0.0532227 1.53541 0.39663 1.53541 0.821423V9.87904L6.40564 5.62019C6.67858 5.381 7.08153 5.36611 7.37135 5.58446L13.0167 9.8175L18.6919 4.85298C18.8943 4.65151 19.1911 4.58004 19.464 4.66639C19.736 4.75274 19.9375 4.98201 19.9881 5.26289C20.0377 5.54377 19.9285 5.82961 19.7032 6.00429L13.5596 11.3797C13.2867 11.6189 12.8837 11.6338 12.5939 11.4164L6.94854 7.18438L1.53541 11.9196V15.4113H19.1971C19.6219 15.4113 19.9653 15.7547 19.9653 16.1795Z" fill="white"/>
</g>
<defs>
<clipPath id="clip0_401_359">
<rect width="20" height="17" fill="white"/>
</clipPath>
</defs>
</svg>
