<svg width="108" height="22" viewBox="0 0 108 22" fill="none" xmlns="http://www.w3.org/2000/svg">
<g clip-path="url(#clip0_401_67)">
<path d="M2.44419 13.5506C2.68231 13.7877 2.81637 14.1089 2.81637 14.445C2.81637 14.7802 2.68231 15.1024 2.44419 15.3385L2.41818 15.3635C1.92094 15.8567 1.11854 15.8567 0.620297 15.3635C0.38218 15.1264 0.249115 14.8052 0.249115 14.47C0.249115 14.1339 0.38218 13.8127 0.620297 13.5766L0.64631 13.5506C1.14355 13.0574 1.94595 13.0574 2.44419 13.5506Z" fill="#A4BCFD"/>
<path d="M8.42713 13.8008C8.66525 14.0379 8.79831 14.36 8.79831 14.6952C8.79731 15.0314 8.66325 15.3525 8.42413 15.5886L4.9034 19.0753C4.40616 19.5676 3.60176 19.5666 3.10652 19.0723C2.8684 18.8362 2.73534 18.5141 2.73534 18.1779C2.73634 17.8427 2.8714 17.5216 3.10952 17.2855L6.63025 13.7978C7.12749 13.3055 7.93189 13.3065 8.42713 13.8008Z" fill="#6172F3"/>
<path d="M13.1455 19.9618C13.5366 19.3805 14.324 19.2235 14.9083 19.6106L14.9844 19.6617C15.2645 19.8468 15.4596 20.1359 15.5256 20.4641C15.5917 20.7932 15.5236 21.1354 15.3375 21.4145C14.9453 21.9948 14.159 22.1519 13.5747 21.7647L13.4986 21.7137C13.2185 21.5296 13.0234 21.2404 12.9574 20.9113C12.8903 20.5821 12.9584 20.24 13.1455 19.9618Z" fill="#A4BCFD"/>
<path d="M21.5556 13.3025C21.7937 13.5387 21.9278 13.8598 21.9278 14.196C21.9278 14.5312 21.7937 14.8533 21.5556 15.0894L19.8267 16.8083C19.3295 17.3005 18.5271 17.3005 18.0299 16.8083C17.7917 16.5712 17.6577 16.25 17.6577 15.9138C17.6577 15.5787 17.7917 15.2565 18.0299 15.0204L19.7587 13.3025C20.2559 12.8093 21.0583 12.8093 21.5556 13.3025Z" fill="#6172F3"/>
<path d="M21.6346 6.99946C21.8727 7.23558 22.0068 7.55774 22.0068 7.8929C22.0068 8.22907 21.8727 8.55023 21.6346 8.78634L8.86134 21.4846C8.3631 21.9778 7.5617 21.9778 7.06446 21.4846C6.82634 21.2485 6.69228 20.9273 6.69228 20.5921C6.69228 20.256 6.82634 19.9348 7.06446 19.6987L19.8367 6.99946C20.334 6.50622 21.1364 6.50622 21.6346 6.99946ZM19.2194 3.09455C19.4575 3.33166 19.5916 3.65282 19.5916 3.98799C19.5916 4.32415 19.4575 4.64531 19.2194 4.88243L11.8728 12.185C11.3756 12.6783 10.5732 12.6783 10.0759 12.185C9.83782 11.9489 9.70376 11.6277 9.70376 11.2916C9.70376 10.9564 9.83782 10.6352 10.0759 10.3981L17.4225 3.09455C17.9198 2.60131 18.7222 2.60131 19.2194 3.09455ZM15.3425 0.618333C15.8388 1.11057 15.8398 1.91097 15.3435 2.40421L5.90089 11.8058C5.40365 12.2991 4.60125 12.3001 4.10301 11.8068C3.86489 11.5707 3.73083 11.2496 3.73083 10.9134C3.72982 10.5782 3.86389 10.2561 4.10201 10.0199L13.5446 0.619334C14.0419 0.126091 14.8443 0.125091 15.3425 0.618333Z" fill="#3538CD"/>
<path d="M5.86889 3.60471C6.107 3.84083 6.24007 4.16298 6.24007 4.49915C6.23907 4.83431 6.104 5.15547 5.86588 5.39159L2.16807 9.05639C1.67083 9.54863 0.866431 9.54763 0.370187 9.05338C0.133071 8.81627 -0.000994931 8.49411 5.55991e-06 8.15895C0.00100605 7.82278 0.135072 7.50162 0.374189 7.26551L4.072 3.60171C4.56925 3.10947 5.37364 3.11047 5.86889 3.60471Z" fill="#6172F3"/>
<path d="M8.23405 5.29598e-06C8.93439 -0.00199569 9.50267 0.563282 9.50567 1.26363V1.38969C9.50267 2.08903 8.93439 2.65531 8.23405 2.65331C7.5347 2.65531 6.96543 2.08903 6.96342 1.38969V1.26363C6.96543 0.563282 7.5347 -0.00199569 8.23405 5.29598e-06Z" fill="#A4BCFD"/>
<path d="M30.7291 10.6842H32.684C33.4104 10.6842 34.0467 10.5842 34.594 10.3851C35.1512 10.177 35.5885 9.87782 35.9066 9.49063C36.2348 9.10244 36.3989 8.63521 36.3989 8.08794C36.3989 7.49065 36.2348 6.99841 35.9066 6.61022C35.5885 6.21202 35.1512 5.91888 34.594 5.72978C34.0467 5.53069 33.4104 5.43164 32.684 5.43164H28.8492V15.8768H32.9372C33.7636 15.8768 34.4789 15.7777 35.0862 15.5786C35.6925 15.3695 36.1607 15.0514 36.4889 14.6231C36.8271 14.1959 36.9962 13.6337 36.9962 12.9373C36.9962 12.4101 36.8771 11.9618 36.638 11.5947C36.4089 11.2155 36.0917 10.8983 35.7125 10.6692C35.3253 10.4201 34.8921 10.241 34.4149 10.1319C33.9376 10.0229 33.4444 9.96786 32.9372 9.96786H30.7291V11.3405H32.654C32.9021 11.3405 33.1262 11.3655 33.3253 11.4156C33.5345 11.4546 33.7185 11.5246 33.8776 11.6237C34.0367 11.7237 34.1608 11.8528 34.2508 12.0119C34.3398 12.1709 34.3849 12.36 34.3849 12.5791C34.3849 12.9173 34.3048 13.1854 34.1458 13.3845C33.9967 13.5736 33.7926 13.7127 33.5345 13.8027C33.2753 13.8818 32.9822 13.9218 32.654 13.9218H31.3704V7.3866H32.4149C32.8531 7.3866 33.1913 7.47564 33.4294 7.65473C33.6685 7.83382 33.7876 8.10295 33.7876 8.46112C33.7876 8.69924 33.7335 8.90334 33.6235 9.07242C33.5144 9.2315 33.3554 9.35556 33.1463 9.44561C32.9472 9.53465 32.704 9.57967 32.4149 9.57967H30.7291V10.6842ZM37.9526 6.43113C37.9526 6.7893 38.0817 7.08245 38.3398 7.31156C38.5989 7.54067 38.9071 7.65473 39.2653 7.65473C39.6334 7.65473 39.9416 7.54067 40.1907 7.31156C40.4488 7.08245 40.5779 6.7893 40.5779 6.43113C40.5779 6.07295 40.4488 5.78481 40.1907 5.5657C39.9416 5.33659 39.6334 5.22253 39.2653 5.22253C38.9071 5.22253 38.5989 5.33659 38.3398 5.5657C38.0817 5.78481 37.9526 6.07295 37.9526 6.43113ZM38.1757 9.01239V15.8768H40.3548V9.01239H38.1757ZM41.3603 12.4451C41.3603 13.1614 41.5294 13.7877 41.8675 14.325C42.2057 14.8623 42.6729 15.2795 43.2702 15.5786C43.8665 15.8768 44.5379 16.0258 45.2842 16.0258C46.0306 16.0258 46.6969 15.8768 47.2842 15.5786C47.8805 15.2795 48.3477 14.8623 48.6869 14.325C49.0351 13.7877 49.2091 13.1614 49.2091 12.4451C49.2091 11.7187 49.0351 11.0864 48.6869 10.5501C48.3477 10.0129 47.8805 9.59468 47.2842 9.29653C46.6969 8.99739 46.0306 8.84831 45.2842 8.84831C44.5379 8.84831 43.8665 8.99739 43.2702 9.29653C42.6729 9.59468 42.2057 10.0129 41.8675 10.5501C41.5294 11.0864 41.3603 11.7187 41.3603 12.4451ZM43.6724 12.4451C43.6724 12.0869 43.7475 11.7788 43.8965 11.5196C44.0456 11.2605 44.2397 11.0624 44.4788 10.9223C44.7169 10.7833 44.9861 10.7142 45.2842 10.7142C45.5724 10.7142 45.8365 10.7833 46.0746 10.9223C46.3237 11.0624 46.5178 11.2605 46.6569 11.5196C46.806 11.7788 46.881 12.0869 46.881 12.4451C46.881 12.8033 46.806 13.1114 46.6569 13.3695C46.5178 13.6187 46.3237 13.8128 46.0746 13.9518C45.8365 14.0909 45.5724 14.1609 45.2842 14.1609C44.9861 14.1609 44.7169 14.0909 44.4788 13.9518C44.2397 13.8128 44.0456 13.6187 43.8965 13.3695C43.7475 13.1114 43.6724 12.8033 43.6724 12.4451ZM50.4898 13.3845L49.5493 14.8773C49.8575 15.1154 50.1906 15.3345 50.5488 15.5336C50.907 15.7227 51.2952 15.8718 51.7134 15.9808C52.1406 16.1009 52.6038 16.1599 53.1011 16.1599C53.9165 16.1599 54.5478 15.9758 54.996 15.6086C55.4532 15.2304 55.6823 14.6732 55.6823 13.9368C55.6823 13.5096 55.5873 13.1664 55.3992 12.9073C55.2201 12.6492 54.976 12.4351 54.6678 12.266C54.3687 12.0969 54.0405 11.9478 53.6823 11.8178C53.3442 11.6887 53.056 11.5847 52.8169 11.5046C52.5888 11.4156 52.4097 11.3205 52.2797 11.2215C52.1656 11.1314 52.0996 10.9934 52.1006 10.8483C52.1006 10.7192 52.1506 10.6142 52.2506 10.5351C52.3597 10.4551 52.5188 10.4151 52.7279 10.4151C53.036 10.4151 53.3742 10.5051 53.7424 10.6842C54.1105 10.8533 54.4387 11.0724 54.7269 11.3405L55.5332 9.87782C55.2641 9.67972 54.976 9.50564 54.6678 9.35556C54.3687 9.20649 54.0455 9.08743 53.6973 8.99739C53.3592 8.90834 52.991 8.86332 52.5938 8.86332C52.0956 8.86332 51.6533 8.93836 51.2652 9.08743C50.887 9.2365 50.5838 9.45561 50.3547 9.74375C50.1366 10.0329 50.0265 10.3851 50.0265 10.8033C50.0265 11.2415 50.1216 11.5997 50.3107 11.8778C50.4998 12.1559 50.7379 12.38 51.027 12.5491C51.3252 12.7082 51.6383 12.8473 51.9665 12.9673C52.3347 13.0764 52.6228 13.1804 52.8319 13.2805C53.051 13.3795 53.2051 13.4846 53.2952 13.5936C53.3842 13.6937 53.4292 13.8178 53.4292 13.9668C53.4292 14.1259 53.3742 14.255 53.2651 14.355C53.1551 14.4541 52.986 14.5041 52.7579 14.5041C52.5988 14.5041 52.4097 14.4741 52.1906 14.414C51.9715 14.345 51.7184 14.23 51.4292 14.0709C51.1511 13.9018 50.8379 13.6737 50.4898 13.3845Z" fill="#181D27"/>
<path d="M63.5022 9.00237H61.189L58.9959 14.4941L60.1595 14.5091L57.9364 9.00237H55.4592L58.4287 15.3145L56.7579 19.1494H59.026L63.5022 9.00237ZM68.2695 11.6887V15.8667H70.6127V11.4496C70.6127 10.6242 70.4186 9.98285 70.0304 9.52463C69.6422 9.0674 69.0209 8.83829 68.1655 8.83829C67.6582 8.83829 67.23 8.94334 66.8818 9.15244C66.5437 9.36055 66.2755 9.65469 66.0764 10.0329V9.00237H63.8083V15.8667H66.0764V11.6887C66.0764 11.4206 66.1265 11.1914 66.2255 11.0024C66.3245 10.8133 66.4646 10.6692 66.6437 10.5691C66.8228 10.4701 67.0309 10.4201 67.27 10.4201C67.6282 10.4201 67.8823 10.5301 68.0314 10.7482C68.1905 10.9673 68.2695 11.2805 68.2695 11.6887ZM71.1379 9.00237V10.8683H75.7342V9.00237H71.1379ZM72.3465 6.6152V15.8667H74.5106V6.6152H72.3465ZM78.5145 4.22803H76.2464V15.8667H78.5145V4.22803ZM80.7076 11.6887V15.8667H82.9607V11.3605C82.9607 10.7932 82.8817 10.316 82.7216 9.92782C82.5625 9.53963 82.3094 9.24649 81.9612 9.04739C81.6231 8.8483 81.1698 8.74925 80.6036 8.74925C80.0363 8.74925 79.569 8.88331 79.2009 9.15244C78.8427 9.41057 78.5746 9.76374 78.3955 10.211C78.2164 10.6492 78.1263 11.1414 78.1263 11.6887H78.5145C78.5145 11.4206 78.5636 11.1964 78.6636 11.0174C78.7627 10.8283 78.9017 10.6842 79.0808 10.5841C79.2599 10.4751 79.47 10.4201 79.7081 10.4201C80.0763 10.4201 80.3344 10.5301 80.4835 10.7482C80.6326 10.9673 80.7076 11.2805 80.7076 11.6887ZM87.7861 16.0158C88.6615 16.0158 89.4029 15.8467 90.0092 15.5086C90.6265 15.1704 91.1137 14.6631 91.4719 13.9868L89.4569 13.4946C89.2878 13.7927 89.0597 14.0168 88.7706 14.1659C88.4924 14.315 88.1543 14.39 87.7561 14.39C87.4079 14.39 87.1147 14.315 86.8756 14.1659C86.6375 14.0068 86.4584 13.7777 86.3384 13.4796C86.2193 13.1804 86.1593 12.8232 86.1593 12.405C86.1693 11.9478 86.2293 11.5696 86.3384 11.2705C86.4584 10.9623 86.6325 10.7332 86.8606 10.5841C87.0897 10.4351 87.3729 10.361 87.711 10.361C87.9802 10.361 88.2143 10.4201 88.4124 10.5401C88.6115 10.6592 88.7656 10.8283 88.8756 11.0474C88.9847 11.2655 89.0397 11.5246 89.0397 11.8228C89.0397 11.8928 89.0197 11.9818 88.9797 12.0919C88.9496 12.1909 88.9106 12.276 88.8606 12.345L89.3979 11.6587H85.1598V12.9123H91.4269C91.4469 12.8423 91.4569 12.7582 91.4569 12.6582V12.33C91.4569 11.5946 91.3128 10.9673 91.0237 10.4501C90.7355 9.93283 90.3173 9.53963 89.771 9.2715C89.2238 8.99237 88.5525 8.8533 87.7561 8.8533C86.9607 8.8533 86.2693 8.99737 85.682 9.28651C85.1048 9.57465 84.6625 9.98785 84.3544 10.5251C84.0452 11.0624 83.8912 11.6987 83.8912 12.4351C83.8912 13.1614 84.0502 13.7927 84.3694 14.33C84.6876 14.8672 85.1348 15.2845 85.7121 15.5836C86.2983 15.8717 86.9907 16.0158 87.7861 16.0158ZM92.7735 13.3745L91.8331 14.8672C92.1422 15.1054 92.4754 15.3245 92.8336 15.5236C93.1917 15.7127 93.5789 15.8617 93.9971 15.9708C94.4243 16.0908 94.8876 16.1499 95.3848 16.1499C96.2002 16.1499 96.8325 15.9668 97.2797 15.5986C97.737 15.2204 97.9661 14.6631 97.9661 13.9268C97.9661 13.4996 97.872 13.1564 97.6829 12.8973C97.5038 12.6392 97.2597 12.4251 96.9516 12.256C96.6534 12.0869 96.3253 11.9378 95.9671 11.8077C95.6289 11.6787 95.3398 11.5746 95.1017 11.4946C94.8726 11.4056 94.6935 11.3105 94.5644 11.2115C94.4493 11.1214 94.3833 10.9833 94.3853 10.8383C94.3853 10.7092 94.4343 10.6042 94.5344 10.5251C94.6434 10.4451 94.8025 10.4051 95.0116 10.4051C95.3198 10.4051 95.6579 10.4951 96.0261 10.6742C96.3943 10.8433 96.7225 11.0624 97.0116 11.3305L97.817 9.8678C97.5489 9.6697 97.2597 9.49561 96.9516 9.34554C96.6534 9.19647 96.3303 9.07741 95.9821 8.98836C95.6429 8.89832 95.2758 8.8533 94.8776 8.8533C94.3803 8.8533 93.9371 8.92833 93.5489 9.07741C93.1717 9.22648 92.8676 9.44559 92.6395 9.73373C92.4204 10.0229 92.3113 10.376 92.3113 10.7932C92.3113 11.2315 92.4053 11.5896 92.5944 11.8678C92.7835 12.1459 93.0216 12.37 93.3108 12.5391C93.6089 12.6982 93.9221 12.8373 94.2503 12.9573C94.6184 13.0664 94.9076 13.1714 95.1157 13.2705C95.3348 13.3695 95.4889 13.4746 95.5789 13.5836C95.6679 13.6837 95.713 13.8077 95.713 13.9568C95.713 14.1159 95.6579 14.2449 95.5489 14.345C95.4398 14.444 95.2708 14.4941 95.0416 14.4941C94.8826 14.4941 94.6935 14.4641 94.4744 14.404C94.2553 14.335 94.0021 14.2209 93.714 14.0609C93.4349 13.8918 93.1217 13.6637 92.7735 13.3745ZM98.6234 6.4211C98.6234 6.77928 98.7525 7.07242 99.0116 7.30154C99.2697 7.53065 99.5779 7.6447 99.936 7.6447C100.304 7.6447 100.612 7.53065 100.861 7.30154C101.121 7.07242 101.25 6.77928 101.25 6.4211C101.25 6.06293 101.121 5.77479 100.861 5.55568C100.612 5.32657 100.304 5.21251 99.936 5.21251C99.5779 5.21251 99.2697 5.32657 99.0116 5.55568C98.7525 5.77479 98.6234 6.06293 98.6234 6.4211ZM98.8475 9.00237V15.8667H101.026V9.00237H98.8475ZM102.807 13.3745L101.867 14.8672C102.176 15.1054 102.509 15.3245 102.867 15.5236C103.226 15.7127 103.613 15.8617 104.031 15.9708C104.458 16.0908 104.921 16.1499 105.419 16.1499C106.234 16.1499 106.866 15.9668 107.314 15.5986C107.771 15.2204 108 14.6631 108 13.9268C108 13.4996 107.906 13.1564 107.717 12.8973C107.538 12.6392 107.294 12.4251 106.986 12.256C106.687 12.0869 106.359 11.9378 106.001 11.8077C105.663 11.6787 105.374 11.5746 105.136 11.4946C104.906 11.4056 104.727 11.3105 104.598 11.2115C104.483 11.1214 104.417 10.9833 104.419 10.8383C104.419 10.7092 104.468 10.6042 104.568 10.5251C104.677 10.4451 104.836 10.4051 105.046 10.4051C105.354 10.4051 105.692 10.4951 106.06 10.6742C106.428 10.8433 106.756 11.0624 107.046 11.3305L107.851 9.8678C107.583 9.6697 107.294 9.49561 106.986 9.34554C106.687 9.19647 106.364 9.07741 106.016 8.98836C105.677 8.89832 105.31 8.8533 104.911 8.8533C104.414 8.8533 103.971 8.92833 103.583 9.07741C103.206 9.22648 102.902 9.44559 102.673 9.73373C102.454 10.0229 102.345 10.376 102.345 10.7932C102.345 11.2315 102.439 11.5896 102.628 11.8678C102.817 12.1459 103.056 12.37 103.345 12.5391C103.643 12.6982 103.956 12.8373 104.284 12.9573C104.652 13.0664 104.941 13.1714 105.15 13.2705C105.369 13.3695 105.523 13.4746 105.613 13.5836C105.702 13.6837 105.747 13.8077 105.747 13.9568C105.747 14.1159 105.692 14.2449 105.583 14.345C105.474 14.444 105.305 14.4941 105.076 14.4941C104.916 14.4941 104.727 14.4641 104.508 14.404C104.289 14.335 104.036 14.2209 103.748 14.0609C103.469 13.8918 103.156 13.6637 102.807 13.3745Z" fill="#181D27"/>
</g>
<defs>
<clipPath id="clip0_401_67">
<rect width="108" height="21.9768" fill="white"/>
</clipPath>
</defs>
</svg>
