<svg width="107" height="22" viewBox="0 0 107 22" fill="none" xmlns="http://www.w3.org/2000/svg">
<g clip-path="url(#clip0_401_51)">
<path d="M10.208 14.583C14.235 14.583 17.5 11.319 17.5 7.292C17.5 3.265 14.235 0 10.208 0H0V14.583H10.208Z" fill="#F38744"/>
<path d="M0 0L17.5 21.875H5.833L0 14.583V0Z" fill="#2E90FA"/>
<path d="M11.566 14.457C11.126 14.54 10.672 14.583 10.208 14.583H0V0L11.566 14.457Z" fill="#53B1FD"/>
<path d="M29.4956 16.0583C28.4745 16.0583 27.5975 15.8542 26.8645 15.4452C26.1485 15.0362 25.5675 14.4272 25.1945 13.6922C24.8045 12.9312 24.6095 12.0352 24.6095 11.0052C24.6095 9.97514 24.8045 9.08412 25.1945 8.33211C25.5835 7.58109 26.1405 7.00008 26.8645 6.59208C27.5975 6.17507 28.4745 5.96606 29.4956 5.96606C30.1546 5.96606 30.7766 6.06807 31.3606 6.27207C31.9546 6.47607 32.4426 6.76908 32.8226 7.14909L32.2376 8.56911C31.8206 8.21611 31.3936 7.9611 30.9576 7.8031C30.5076 7.6341 30.0316 7.54909 29.5516 7.55309C28.5585 7.55309 27.8015 7.8541 27.2825 8.45811C26.7625 9.05212 26.5025 9.90114 26.5025 11.0052C26.5025 12.1092 26.7625 12.9632 27.2825 13.5662C27.8015 14.1692 28.5585 14.4712 29.5516 14.4712C30.0526 14.4712 30.5206 14.3922 30.9576 14.2342C31.3936 14.0672 31.8206 13.8072 32.2376 13.4552L32.8226 14.8752C32.4426 15.2462 31.9546 15.5382 31.3606 15.7522C30.7766 15.9563 30.1546 16.0583 29.4956 16.0583ZM36.8257 16.0583C36.1197 16.0583 35.5077 15.9143 34.9877 15.6262C34.4737 15.3442 34.0526 14.9192 33.7766 14.4012C33.4896 13.8632 33.3456 13.2322 33.3456 12.5082C33.3456 11.7842 33.4896 11.1582 33.7766 10.6292C34.0526 10.1121 34.4737 9.68613 34.9877 9.40413C35.5077 9.11612 36.1197 8.97312 36.8247 8.97312C37.5307 8.97312 38.1427 9.11712 38.6627 9.40413C39.1767 9.68613 39.5977 10.1121 39.8738 10.6292C40.1618 11.1582 40.3058 11.7842 40.3058 12.5082C40.3058 13.2322 40.1618 13.8632 39.8738 14.4012C39.5977 14.9192 39.1767 15.3442 38.6627 15.6262C38.1427 15.9143 37.5317 16.0583 36.8257 16.0583ZM36.8257 14.7362C37.3447 14.7362 37.7627 14.5502 38.0787 14.1792C38.3937 13.7982 38.5507 13.2422 38.5507 12.5082C38.5507 11.7662 38.3937 11.2142 38.0777 10.8522C37.7627 10.4801 37.3447 10.2951 36.8247 10.2951C36.3057 10.2951 35.8877 10.4801 35.5727 10.8522C35.2567 11.2142 35.0997 11.7662 35.0997 12.5082C35.0997 13.2422 35.2567 13.7982 35.5727 14.1792C35.8877 14.5502 36.3057 14.7362 36.8257 14.7362ZM41.7698 15.9192V9.11212H43.4678V10.1561C43.6628 9.79314 43.9578 9.49413 44.3168 9.29313C44.6788 9.07912 45.0959 8.97312 45.5699 8.97312C46.5909 8.97312 47.2589 9.41813 47.5739 10.3091C47.7779 9.90114 48.0979 9.56213 48.4929 9.33413C48.8919 9.09312 49.3469 8.97312 49.8569 8.97312C51.388 8.97312 52.154 9.90514 52.154 11.7712V15.9192H50.4139V11.8402C50.4139 11.3212 50.3259 10.9402 50.1499 10.6992C49.9819 10.4581 49.6949 10.3371 49.2859 10.3371C48.8319 10.3371 48.4749 10.4991 48.2149 10.8242C47.9549 11.1402 47.8249 11.5802 47.8249 12.1462V15.9192H46.0849V11.8402C46.0849 11.3212 45.9969 10.9402 45.8199 10.6992C45.6529 10.4581 45.3699 10.3371 44.9708 10.3371C44.5168 10.3371 44.1588 10.4991 43.8988 10.8242C43.6398 11.1402 43.5098 11.5802 43.5098 12.1462V15.9192H41.7698ZM53.977 15.9192V9.11212H55.675V10.1561C55.8711 9.79314 56.1651 9.49413 56.5241 9.29313C56.8861 9.07912 57.3041 8.97312 57.7771 8.97312C58.7981 8.97312 59.4661 9.41813 59.7821 10.3091C59.9861 9.90114 60.3051 9.56213 60.7011 9.33413C61.1002 9.09312 61.5542 8.97312 62.0652 8.97312C63.5962 8.97312 64.3622 9.90514 64.3622 11.7712V15.9192H62.6222V11.8402C62.6222 11.3212 62.5342 10.9402 62.3572 10.6992C62.1902 10.4581 61.9022 10.3371 61.4942 10.3371C61.0392 10.3371 60.6821 10.4991 60.4221 10.8242C60.1621 11.1402 60.0321 11.5802 60.0321 12.1462V15.9192H58.2921V11.8402C58.2921 11.3212 58.2041 10.9402 58.0281 10.6992C57.8611 10.4581 57.5781 10.3371 57.1791 10.3371C56.7241 10.3371 56.3671 10.4991 56.1071 10.8242C55.8471 11.1402 55.717 11.5802 55.717 12.1462V15.9192H53.977ZM68.3983 16.0583C67.9063 16.0583 67.4653 15.9653 67.0753 15.7802C66.6953 15.5852 66.3932 15.3252 66.1712 15.0002C65.9572 14.6742 65.8452 14.2912 65.8502 13.9002C65.8502 13.3992 65.9802 13.0052 66.2402 12.7172C66.5002 12.4202 66.9223 12.2072 67.5073 12.0772C68.0923 11.9472 68.8763 11.8822 69.8603 11.8822H70.3473V11.5902C70.3473 11.1262 70.2443 10.7922 70.0403 10.5872C69.8363 10.3831 69.4933 10.2811 69.0103 10.2811C68.6303 10.2811 68.2403 10.3411 67.8413 10.4621C67.4163 10.5852 67.0093 10.7622 66.6302 10.9912L66.1292 9.80814C66.3932 9.62913 66.6782 9.48413 66.9783 9.37613C67.3163 9.24513 67.6653 9.14712 68.0223 9.08412C68.3933 9.00912 68.7413 8.97312 69.0663 8.97312C70.0593 8.97312 70.7973 9.20512 71.2793 9.66913C71.7623 10.1231 72.0034 10.8332 72.0034 11.7982V15.9192H70.3753V14.8332C70.2233 15.2052 69.9613 15.5212 69.6233 15.7382C69.2793 15.9523 68.8713 16.0583 68.3983 16.0583ZM68.7603 14.8612C69.2143 14.8612 69.5903 14.7032 69.8873 14.3882C70.1943 14.0722 70.3473 13.6732 70.3473 13.1902V12.8842H69.8733C69.0013 12.8842 68.3933 12.9542 68.0503 13.0932C67.7163 13.2232 67.5493 13.4642 67.5493 13.8172C67.5493 14.1232 67.6553 14.3742 67.8693 14.5682C68.0823 14.7632 68.3793 14.8612 68.7603 14.8612ZM73.7694 15.9192V9.11212H75.4674V10.1701C75.6884 9.79114 76.0114 9.48213 76.4004 9.27913C76.7994 9.07512 77.2455 8.97312 77.7365 8.97312C79.3425 8.97312 80.1455 9.90514 80.1455 11.7712V15.9192H78.4055V11.8542C78.4055 11.3252 78.3035 10.9402 78.0985 10.6992C77.9035 10.4581 77.5975 10.3371 77.1805 10.3371C76.6694 10.3371 76.2614 10.4991 75.9554 10.8242C75.6584 11.1402 75.5094 11.5622 75.5094 12.0912V15.9192H73.7694ZM84.5296 16.0583C83.9356 16.0583 83.4116 15.9143 82.9566 15.6262C82.5106 15.3392 82.1625 14.9302 81.9125 14.4012C81.6615 13.8632 81.5365 13.2322 81.5365 12.5082C81.5365 11.7752 81.6615 11.1492 81.9125 10.6292C82.1625 10.1001 82.5106 9.69213 82.9566 9.40413C83.4116 9.11612 83.9356 8.97312 84.5296 8.97312C85.0126 8.97312 85.4486 9.07912 85.8376 9.29313C86.2276 9.50613 86.5206 9.78914 86.7146 10.1421V6.10507H88.4547V15.9192H86.7566V14.7912C86.5716 15.1812 86.2786 15.4922 85.8796 15.7242C85.4806 15.9473 85.0306 16.0583 84.5296 16.0583ZM85.0166 14.7362C85.5366 14.7362 85.9536 14.5502 86.2696 14.1792C86.5856 13.7982 86.7426 13.2422 86.7426 12.5082C86.7426 11.7662 86.5856 11.2142 86.2696 10.8522C85.9536 10.4801 85.5366 10.2951 85.0166 10.2951C84.4976 10.2951 84.0796 10.4801 83.7636 10.8522C83.4486 11.2142 83.2906 11.7662 83.2906 12.5082C83.2906 13.2422 83.4486 13.7982 83.7636 14.1792C84.0796 14.5502 84.4976 14.7362 85.0166 14.7362ZM92.8897 15.3622V12.5362H90.1337V11.3112H92.8897V8.56911H94.1708V11.3112H96.9268V12.5362H94.1708V15.3622H92.8897ZM98.7729 15.9192V6.10507H103.033C104.11 6.10507 104.94 6.36507 105.525 6.88508C106.109 7.39509 106.402 8.1141 106.402 9.04212C106.402 9.77514 106.212 10.3831 105.831 10.8662C105.45 11.3392 104.903 11.6592 104.188 11.8262C104.662 11.9752 105.051 12.3322 105.358 12.8982L107 15.9192H105.037L103.339 12.7872C103.172 12.4802 102.973 12.2722 102.741 12.1602C102.518 12.0492 102.23 11.9932 101.877 11.9932H100.555V15.9192H98.7729ZM100.555 10.6712H102.727C104.026 10.6712 104.675 10.1421 104.675 9.08412C104.675 8.0351 104.026 7.51109 102.727 7.51109H100.555V10.6712Z" fill="#181D27"/>
</g>
<defs>
<clipPath id="clip0_401_51">
<rect width="107" height="21.8754" fill="white"/>
</clipPath>
</defs>
</svg>
