<svg width="98" height="22" viewBox="0 0 98 22" fill="none" xmlns="http://www.w3.org/2000/svg">
<g clip-path="url(#clip0_401_60)">
<path d="M15.1718 0H6.76554L0 6.76654V15.1718L6.76654 21.9384H15.1718L21.9384 15.1718V6.76554L15.1718 0ZM7.9299 15.2771L3.59438 10.9426L7.9299 6.60808C9.56763 4.96935 12.2644 4.96935 13.9031 6.60808L18.2377 10.9426L13.9031 15.2771C12.2644 16.9158 9.62078 16.9158 7.9299 15.2771Z" fill="#444CE7"/>
<path d="M31.5712 16.1697C32.9171 16.1697 34.0243 15.4817 34.3682 14.4487V16.0493H36.357V12.0107C36.357 11.099 35.6389 10.3208 34.6671 10.3208H31.8249V12.0107H33.8447C34.0985 12.0107 34.2629 12.1751 34.2629 12.4299C34.2629 13.4017 32.9762 14.3444 31.6755 14.3444C29.9405 14.3444 28.5645 12.9835 28.5645 10.8142C28.5645 8.64596 29.9405 7.38933 31.7206 7.38933C33.0665 7.38933 33.9942 8.12245 34.1586 9.24368H36.3871C36.2527 7.0002 34.3682 5.45976 31.7356 5.45976C28.9676 5.45976 26.4253 7.2399 26.4253 10.8142C26.4253 14.3895 28.8934 16.1697 31.5712 16.1697ZM37.2115 16.0493H39.2905V5.23511H37.2115V16.0493ZM43.7754 16.1697C46.0941 16.1697 47.7539 14.5239 47.7539 12.2805C47.7539 10.037 46.0941 8.39122 43.7754 8.39122C41.4567 8.39122 39.7969 10.037 39.7969 12.2805C39.7969 14.5239 41.4567 16.1697 43.7754 16.1697ZM43.7754 14.3745C42.6532 14.3745 41.891 13.522 41.891 12.2805C41.891 11.0238 42.6532 10.1714 43.7754 10.1714C44.8966 10.1714 45.6599 11.0238 45.6599 12.2805C45.6599 13.522 44.8966 14.3745 43.7754 14.3745ZM52.4063 16.1697C54.6348 16.1697 55.9666 14.6282 55.9666 12.2805C55.9666 9.93167 54.6348 8.39122 52.4364 8.39122C51.4937 8.39122 50.7606 8.75026 50.3424 9.30386V5.23511H48.2634V16.0493H50.3424V15.227C50.7606 15.8106 51.5388 16.1697 52.4063 16.1697ZM52.0774 14.3745C50.9551 14.3745 50.222 13.5371 50.222 12.2805C50.222 11.0088 50.9551 10.1714 52.0774 10.1714C53.1695 10.1714 53.9167 11.0088 53.9167 12.2805C53.9167 13.5371 53.1695 14.3745 52.0774 14.3745ZM59.4467 8.39122C57.3817 8.39122 56.1552 9.60272 56.0659 11.1131H57.9203C57.9503 10.4853 58.4147 9.91663 59.3263 9.91663C60.1788 9.91663 60.6732 10.3509 60.6732 10.9787C60.6732 11.2926 60.4786 11.5323 60.1046 11.5323H58.8329C57.1881 11.5323 56.0809 12.4299 56.0809 13.9102C56.0809 15.1969 57.0828 16.1697 58.5491 16.1697C59.5811 16.1697 60.4185 15.7053 60.6732 15.0023V16.0493H62.7372V11.2033C62.7372 9.49842 61.3462 8.39122 59.4467 8.39122ZM59.0726 14.6583C58.4889 14.6583 58.0707 14.3143 58.0707 13.8209C58.0707 13.2372 58.519 12.8491 59.1468 12.8491H60.6732V12.9534C60.6732 13.9102 60.0895 14.6583 59.0726 14.6583ZM63.5365 16.0493H65.6155V5.23511H63.5365V16.0493ZM66.7197 16.0493H70.998C73.2114 16.0493 74.7368 14.9131 74.7368 12.9233C74.7368 11.5473 73.9295 10.7099 72.9717 10.3358C73.5855 10.0069 74.1983 9.25873 74.1983 8.27188C74.1983 6.52182 72.7772 5.5791 70.8777 5.5791H66.7197V16.0493ZM68.9331 9.57263V7.35924H70.6691C71.671 7.35924 72.1193 7.76341 72.1193 8.46644C72.1193 9.16947 71.671 9.57263 70.7132 9.57263H68.9331ZM68.9331 14.1047V11.4721H70.8035C72.045 11.4721 72.5986 11.9515 72.5986 12.804C72.5986 13.6564 72.045 14.1047 70.8035 14.1047H68.9331ZM78.3543 8.39122C76.2893 8.39122 75.0628 9.60272 74.9735 11.1131H76.8279C76.858 10.4853 77.3223 9.91663 78.2339 9.91663C79.0864 9.91663 79.5808 10.3509 79.5808 10.9787C79.5808 11.2926 79.3862 11.5323 79.0122 11.5323H77.7405C76.0957 11.5323 74.9886 12.4299 74.9886 13.9102C74.9886 15.1969 75.9904 16.1697 77.4567 16.1697C78.4887 16.1697 79.3261 15.7053 79.5808 15.0023V16.0493H81.6448V11.2033C81.6448 9.49842 80.2538 8.39122 78.3543 8.39122ZM77.9802 14.6583C77.3965 14.6583 76.9773 14.3143 76.9773 13.8209C76.9773 13.2372 77.4266 12.8491 78.0544 12.8491H79.5808V12.9534C79.5808 13.9102 78.9971 14.6583 77.9802 14.6583ZM82.3237 16.0493H84.4178V11.9214C84.4178 10.9486 85.0616 10.2456 85.9743 10.2456C86.8418 10.2456 87.4245 10.9045 87.4245 11.8161V16.0493H89.5185V11.3528C89.5185 9.61776 88.4123 8.39122 86.7064 8.39122C85.6744 8.39122 84.837 8.82548 84.4178 9.55759V8.51057H82.3237V16.0493ZM95.4867 16.0493H98L94.7536 11.4721L97.7603 8.51057H95.1277L92.5101 11.084V5.23511H90.4161V16.0493H92.5101V13.6865L93.3476 12.8631L95.4867 16.0493Z" fill="#181D27"/>
</g>
<defs>
<clipPath id="clip0_401_60">
<rect width="98" height="21.9384" fill="white"/>
</clipPath>
</defs>
</svg>
