<svg width="97" height="22" viewBox="0 0 97 22" fill="none" xmlns="http://www.w3.org/2000/svg">
<g clip-path="url(#clip0_401_42)">
<path d="M16.9801 10.992C15.1393 13.0551 12.5056 14.2326 9.742 14.2296C6.9774 14.2326 4.34264 13.0551 2.50192 10.992C4.34264 8.92985 6.9764 7.75236 9.742 7.75538C12.5056 7.75236 15.1393 8.92985 16.9801 10.992Z" fill="white"/>
<path d="M0 17.4672C0 14.9804 0.93495 12.7109 2.47274 10.993C4.31345 13.0551 6.94822 14.2336 9.71281 14.2296C12.4774 14.2336 15.1112 13.0551 16.9519 10.993C18.547 12.7713 19.4286 15.078 19.4246 17.4672V21.1375C19.4246 21.6136 19.0382 22 18.5611 22H0.863495C0.634035 22 0.414639 21.9094 0.252607 21.7474C0.0905764 21.5854 0 21.366 0 21.1365V17.4672Z" fill="#7CD4FD"/>
<path d="M6.06862 13.5382C4.69286 12.9796 3.46304 12.1141 2.47374 11.007C4.31446 8.94492 6.94822 7.76743 9.71281 7.77045C12.4774 7.76743 15.1112 8.94492 16.9519 11.007C18.548 9.22873 19.4286 6.92205 19.4256 4.53285V0.863495C19.4256 0.386459 19.0392 0 18.5621 0H0.863495C0.386459 0 0 0.386459 0 0.863495V4.53285C0 8.60778 2.51098 12.098 6.06862 13.5382Z" fill="#0BA5EC"/>
<path d="M34.6294 6.34241V16.1206H32.6679V11.9602H28.4792V16.1206H26.5178V6.34241H28.4792V10.363H32.6679V6.34241H34.6294ZM40.0056 16.2464C39.2588 16.2464 38.5866 16.0834 37.9888 15.7563C37.395 15.4252 36.9049 14.9351 36.5738 14.3413C36.2376 13.7344 36.0695 13.034 36.0695 12.2399C36.0695 11.4459 36.2426 10.7454 36.5878 10.1386C36.928 9.54579 37.4282 9.06071 38.03 8.73765C38.6379 8.40151 39.3152 8.23344 40.0619 8.23344C40.8097 8.23344 41.486 8.40151 42.0929 8.73765C42.6937 9.05869 43.1899 9.54479 43.522 10.1386C43.8772 10.7454 44.0544 11.4459 44.0544 12.2399C44.0544 13.034 43.8722 13.7344 43.5079 14.3413C43.1627 14.9391 42.6585 15.4292 42.0506 15.7563C41.4437 16.0834 40.7624 16.2464 40.0056 16.2464ZM40.0056 14.5376C40.3609 14.5376 40.692 14.454 40.9999 14.286C41.3179 14.1078 41.5706 13.8472 41.7567 13.501C41.9439 13.1558 42.0375 12.7351 42.0375 12.2399C42.0375 11.5022 41.8413 10.9377 41.4488 10.5452C41.0663 10.1436 40.5943 9.94232 40.0338 9.94232C39.4732 9.94232 39.0022 10.1436 38.6188 10.5452C38.2454 10.9377 38.0582 11.5022 38.0582 12.2399C38.0582 12.9786 38.2404 13.5473 38.6047 13.9498C38.9781 14.3413 39.445 14.5376 40.0056 14.5376ZM52.8201 8.35924V16.1206H50.8446V15.1404C50.593 15.4765 50.2609 15.7422 49.8502 15.9385C49.4376 16.1277 48.9877 16.2233 48.5339 16.2193C47.926 16.2193 47.3896 16.0925 46.9226 15.8409C46.4556 15.5792 46.0863 15.2008 45.8156 14.7056C45.5539 14.2014 45.4231 13.6036 45.4231 12.9122V8.35924H47.3846V12.6324C47.3846 13.2494 47.5385 13.7254 47.8465 14.0615C48.1555 14.3886 48.5751 14.5516 49.1075 14.5516C49.65 14.5516 50.0747 14.3886 50.3826 14.0615C50.6906 13.7254 50.8446 13.2494 50.8446 12.6324V8.35924H52.8201ZM56.7169 9.56492C56.9575 9.16537 57.2946 8.83225 57.6972 8.59776C58.1078 8.36428 58.5748 8.24753 59.0981 8.24753V10.3066H58.5798C57.9639 10.3066 57.4959 10.4516 57.1789 10.7414C56.8709 11.0312 56.7169 11.5355 56.7169 12.254V16.1206H54.7555V8.35924H56.7169V9.56492ZM63.4598 8.23344C64.0385 8.23344 64.5478 8.35019 64.9866 8.58367C65.4254 8.8081 65.7705 9.10197 66.0232 9.46629V8.35924H67.9987V16.177C67.9987 16.8956 67.8538 17.5356 67.564 18.0962C67.2741 18.6658 66.8404 19.1147 66.2617 19.4408C65.682 19.7769 64.9815 19.945 64.1603 19.945C63.0573 19.945 62.1515 19.6883 61.442 19.1751C60.7415 18.6608 60.345 17.9603 60.2514 17.0737H62.1988C62.3015 17.429 62.5209 17.7087 62.857 17.914C63.2022 18.1294 63.6179 18.2361 64.1039 18.2361C64.6736 18.2361 65.1355 18.064 65.4908 17.7178C65.845 17.3817 66.0232 16.8674 66.0232 16.177V14.9723C65.7705 15.3366 65.4203 15.6396 64.9725 15.8831C64.5337 16.1257 64.0295 16.2464 63.4598 16.2464C62.8258 16.2525 62.2038 16.0774 61.6664 15.7422C61.124 15.4061 60.6953 14.9341 60.3772 14.3272C60.0693 13.7113 59.9153 13.0058 59.9153 12.2118C59.9153 11.4278 60.0693 10.7313 60.3772 10.1245C60.6953 9.51762 61.12 9.05064 61.6523 8.72356C62.1938 8.39749 62.7966 8.23344 63.4598 8.23344ZM66.0232 12.2399C66.0232 11.7639 65.9296 11.3573 65.7434 11.0212C65.5562 10.676 65.3046 10.4143 64.9866 10.2372C64.6776 10.052 64.3233 9.9554 63.9641 9.95641C63.5997 9.95641 63.2636 10.045 62.9546 10.2231C62.6467 10.4002 62.3951 10.6619 62.1988 11.0071C62.0116 11.3432 61.918 11.7458 61.918 12.2118C61.918 12.6787 62.0116 13.0904 62.1988 13.4446C62.3951 13.7898 62.6467 14.0565 62.9546 14.2437C63.2596 14.4269 63.6078 14.5235 63.9641 14.5235C64.3223 14.5255 64.6746 14.4339 64.9866 14.2578C65.3056 14.0696 65.5662 13.7989 65.7434 13.4728C65.9296 13.1276 66.0232 12.717 66.0232 12.2399ZM71.8754 5.75366V16.1206H69.9139V5.75366H71.8754ZM73.3085 12.2118C73.3085 11.4278 73.4625 10.7313 73.7705 10.1245C74.0885 9.51762 74.5132 9.05064 75.0456 8.72356C75.587 8.39749 76.1899 8.23344 76.8531 8.23344C77.4318 8.23344 77.937 8.35019 78.3657 8.58367C78.8055 8.81716 79.1557 9.11203 79.4164 9.46629V8.35924H81.392V16.1206H79.4164V14.9864C79.1648 15.3507 78.8146 15.6537 78.3657 15.8962C77.9269 16.1307 77.4177 16.2464 76.839 16.2464C76.205 16.2525 75.583 16.0774 75.0456 15.7422C74.5132 15.4061 74.0885 14.9341 73.7705 14.3272C73.4625 13.7113 73.3085 13.0058 73.3085 12.2118ZM79.4164 12.2399C79.4164 11.7639 79.3238 11.3573 79.1366 11.0212C78.9494 10.676 78.6978 10.4143 78.3798 10.2372C78.0708 10.052 77.7176 9.9554 77.3573 9.95641C76.993 9.95641 76.6568 10.045 76.3489 10.2231C76.0399 10.4002 75.7883 10.6619 75.5921 11.0071C75.4049 11.3432 75.3113 11.7458 75.3113 12.2118C75.3113 12.6787 75.4049 13.0904 75.5921 13.4446C75.7883 13.7898 76.0399 14.0565 76.3489 14.2437C76.6528 14.4269 77.002 14.5235 77.3573 14.5235C77.7216 14.5235 78.0628 14.4349 78.3798 14.2578C78.6988 14.0696 78.9605 13.7989 79.1366 13.4728C79.3238 13.1276 79.4164 12.717 79.4164 12.2399ZM86.2781 16.2464C85.643 16.2464 85.0724 16.1347 84.5682 15.9103C84.064 15.6768 83.6624 15.3638 83.3635 14.9723C83.0797 14.5949 82.9136 14.141 82.8875 13.669H84.863C84.9003 13.9679 85.0452 14.2155 85.2968 14.4118C85.5585 14.608 85.8805 14.7056 86.264 14.7056C86.6373 14.7056 86.9262 14.6312 87.1325 14.4822C87.3469 14.3323 87.4545 14.141 87.4545 13.9076C87.4545 13.6549 87.3237 13.4688 87.062 13.347C86.8094 13.2162 86.4039 13.0763 85.8433 12.9263C85.2646 12.7864 84.7886 12.6415 84.4142 12.4925C84.0479 12.3416 83.7208 12.1061 83.4621 11.8062C83.2005 11.4982 83.0696 11.0816 83.0696 10.5592C83.0696 10.1295 83.1914 9.73701 83.434 9.38276C83.6856 9.0275 84.0408 8.74671 84.4987 8.5414C84.9657 8.3371 85.5112 8.23344 86.1372 8.23344C87.062 8.23344 87.7997 8.46693 88.3512 8.9339C88.9018 9.39181 89.2057 10.0128 89.262 10.7968H87.3841C87.3559 10.4888 87.2261 10.2463 86.9916 10.0691C86.7682 9.88193 86.4642 9.78834 86.0818 9.78834C85.7265 9.78834 85.4508 9.85375 85.2545 9.98459C85.0684 10.1154 84.9748 10.2976 84.9748 10.5311C84.9748 10.7927 85.1056 10.993 85.3673 11.1339C85.6289 11.2637 86.0345 11.3996 86.586 11.5395C87.1466 11.6794 87.6085 11.8253 87.9728 11.9742C88.3392 12.1252 88.6622 12.3657 88.9118 12.6747C89.1815 12.9827 89.3224 13.3933 89.3315 13.9076C89.3315 14.3554 89.2057 14.757 88.9531 15.1122C88.7105 15.4675 88.3553 15.7473 87.8883 15.9526C87.4304 16.1488 86.894 16.2464 86.2781 16.2464ZM93.9116 16.2464C93.2766 16.2464 92.707 16.1347 92.2028 15.9103C91.6985 15.6768 91.296 15.3638 90.9981 14.9723C90.7133 14.5949 90.5472 14.141 90.5211 13.669H92.4966C92.5339 13.9679 92.6788 14.2155 92.9314 14.4118C93.192 14.608 93.5141 14.7056 93.8975 14.7056C94.2709 14.7056 94.5608 14.6312 94.7661 14.4822C94.9804 14.3323 95.0881 14.141 95.0881 13.9076C95.0881 13.6549 94.9573 13.4688 94.6966 13.347C94.444 13.2162 94.0374 13.0763 93.4779 12.9263C92.8982 12.7864 92.4221 12.6415 92.0488 12.4925C91.6814 12.3416 91.3554 12.1061 91.0957 11.8062C90.834 11.4982 90.7032 11.0816 90.7032 10.5592C90.7032 10.1295 90.825 9.73701 91.0675 9.38276C91.3201 9.0275 91.6744 8.74671 92.1323 8.5414C92.5993 8.3371 93.1458 8.23344 93.7717 8.23344C94.6966 8.23344 95.4333 8.46693 95.9848 8.9339C96.5363 9.39181 96.8393 10.0128 96.8956 10.7968H95.0187C94.9905 10.4888 94.8597 10.2463 94.6262 10.0691C94.4018 9.88193 94.0978 9.78834 93.7154 9.78834C93.3601 9.78834 93.0854 9.85375 92.8891 9.98459C92.7019 10.1154 92.6083 10.2976 92.6083 10.5311C92.6083 10.7927 92.7392 10.993 93.0008 11.1339C93.2625 11.2637 93.6681 11.3996 94.2196 11.5395C94.7802 11.6794 95.2421 11.8253 95.6064 11.9742C95.9738 12.1252 96.2958 12.3657 96.5454 12.6747C96.8161 12.9827 96.956 13.3933 96.9661 13.9076C96.9661 14.3554 96.8393 14.757 96.5877 15.1122C96.3441 15.4675 95.9899 15.7473 95.5229 15.9526C95.065 16.1488 94.5286 16.2464 93.9116 16.2464Z" fill="#181D27"/>
</g>
<defs>
<clipPath id="clip0_401_42">
<rect width="96.9661" height="22" fill="white"/>
</clipPath>
</defs>
</svg>
