<svg width="22" height="22" viewBox="0 0 22 22" fill="none" xmlns="http://www.w3.org/2000/svg">
<g clip-path="url(#clip0_401_1021)">
<path d="M13.635 1.061L11.525 0.496002L9.74501 7.133L8.14001 1.141L6.03001 1.706L7.76501 8.18L3.44401 3.86L1.89901 5.404L6.63901 10.144L0.736013 8.562L0.170013 10.672L6.62001 12.401C6.21301 10.647 6.92301 8.823 8.40901 7.806C9.89501 6.79 11.852 6.788 13.34 7.803C14.827 8.818 15.54 10.641 15.135 12.395L20.995 13.965L21.561 11.855L15.086 10.12L20.989 8.538L20.423 6.428L13.949 8.163L18.27 3.842L16.725 2.297L12.051 6.971L13.635 1.061Z" fill="#FF5101"/>
<path d="M15.128 12.419C14.95 13.171 14.574 13.862 14.041 14.422L18.287 18.668L19.832 17.123L15.128 12.419ZM13.998 14.467C13.468 15.008 12.798 15.413 12.046 15.621L13.591 21.387L15.701 20.822L13.998 14.467ZM11.967 15.642C11.226 15.833 10.448 15.826 9.71001 15.622L8.16401 21.394L10.274 21.959L11.967 15.642ZM9.63601 15.601C8.90501 15.384 8.24301 14.98 7.71701 14.429L3.46101 18.686L5.00601 20.231L9.63601 15.601ZM7.68201 14.392C7.16201 13.836 6.79701 13.155 6.62201 12.414L0.743011 13.989L1.30901 16.099L7.68201 14.392Z" fill="#FF5101"/>
</g>
<defs>
<clipPath id="clip0_401_1021">
<rect width="22" height="22" fill="white"/>
</clipPath>
</defs>
</svg>
