<svg width="93" height="22" viewBox="0 0 93 22" fill="none" xmlns="http://www.w3.org/2000/svg">
<g clip-path="url(#clip0_401_81)">
<path d="M4.75234 10.9678C4.75234 7.53515 7.53515 4.75234 10.9678 4.75234C14.4004 4.75234 17.1832 7.53515 17.1832 10.9678C17.1832 14.4004 14.4004 17.1832 10.9678 17.1832C7.53515 17.1832 4.75234 14.4004 4.75234 10.9678ZM10.9678 21.9366C17.0258 21.9366 21.9366 17.0258 21.9366 10.9678C21.9366 4.91078 17.0258 0 10.9678 0C4.91078 0 0 4.91078 0 10.9678C0 17.0258 4.91078 21.9366 10.9678 21.9366Z" fill="#6938EF"/>
<path d="M11.0941 11.2085C12.2363 10.0663 14.0875 10.0663 15.2297 11.2085L20.9167 16.8954C21.6648 17.6335 21.9596 18.7145 21.6899 19.7284C21.4201 20.7432 20.6279 21.5354 19.6141 21.8052C18.5992 22.075 17.5182 21.7791 16.7811 21.032L11.0941 15.3441C9.95194 14.2019 9.95194 12.3497 11.0941 11.2075V11.2085Z" fill="#F670C7"/>
<path d="M12.6906 16.9415L16.3027 20.5537C18.0366 19.5859 19.4767 18.168 20.4704 16.4491L16.8874 12.8661C16.2536 14.8386 14.6812 16.3659 12.6906 16.9415Z" fill="#6519BA"/>
<path d="M39.6443 17.0007C39.3354 17.3857 38.9373 17.6926 38.486 17.8942C38.0398 18.0987 37.5464 18.201 37.0059 18.201C36.2808 18.201 35.624 18.0426 35.0383 17.7267C34.4517 17.4188 33.7818 16.8703 33.0277 16.0791C32.1442 15.9678 31.353 15.684 30.655 15.2277C29.9781 14.7844 29.4216 14.1797 29.0355 13.4688C28.6544 12.7427 28.4629 11.9425 28.4629 11.068C28.4629 10.1093 28.6905 9.24791 29.1468 8.48477C29.6121 7.7126 30.2499 7.1079 31.0592 6.67067C31.8785 6.23345 32.795 6.01483 33.8099 6.01483C34.8237 6.01483 35.7363 6.23345 36.5456 6.67067C37.3548 7.1079 37.9926 7.7126 38.4579 8.48477C38.9232 9.24791 39.1559 10.1093 39.1559 11.068C39.1559 12.2032 38.835 13.199 38.1932 14.0554C37.5594 14.9108 36.7181 15.5065 35.6661 15.8414C35.8988 16.0841 36.1224 16.2556 36.336 16.3579C36.5566 16.4692 36.8013 16.5263 37.048 16.5263C37.6527 16.5263 38.1832 16.2837 38.6395 15.8003L39.6443 17.0007ZM30.7523 11.068C30.7523 11.6727 30.8827 12.2122 31.1434 12.6866C31.4031 13.1519 31.7842 13.5379 32.2465 13.8037C32.7108 14.0644 33.2333 14.1948 33.8099 14.1948C34.3865 14.1948 34.908 14.0644 35.3733 13.8037C35.8326 13.54 36.2096 13.1529 36.4623 12.6866C36.7321 12.2122 36.8665 11.6727 36.8665 11.068C36.8665 10.4633 36.7321 9.9228 36.4623 9.44847C36.2116 8.98417 35.8336 8.60209 35.3733 8.34537C34.908 8.07562 34.3865 7.94124 33.8099 7.94124C33.2333 7.94124 32.7108 8.07562 32.2465 8.34537C31.7832 8.6041 31.4011 8.98517 31.1434 9.44847C30.8827 9.9228 30.7523 10.4633 30.7523 11.068ZM48.2685 8.44365V15.9537H46.2017V15.0602C45.9169 15.3831 45.5639 15.6408 45.1688 15.8143C44.7576 15.9838 44.3164 16.069 43.8711 16.065C42.8844 16.065 42.1022 15.7812 41.5256 15.2136C40.9489 14.6461 40.6601 13.8037 40.6601 12.6866V8.44365H42.8382V12.3657C42.8382 13.5761 43.3447 14.1808 44.3595 14.1808C44.88 14.1808 45.2991 14.0133 45.616 13.6783C45.9319 13.3344 46.0904 12.827 46.0904 12.1571V8.44365H48.2685ZM53.8592 16.065C53.0679 16.065 52.3559 15.9026 51.7232 15.5767C51.0994 15.2417 50.6111 14.7804 50.2581 14.1948C49.9041 13.6081 49.7276 12.9433 49.7276 12.1982C49.7276 11.4541 49.9041 10.7882 50.2581 10.2026C50.6111 9.61594 51.0994 9.16066 51.7232 8.83374C52.3559 8.4988 53.0679 8.33133 53.8592 8.33133C54.6504 8.33133 55.3574 8.4988 55.9811 8.83374C56.5878 9.14462 57.0952 9.61795 57.4472 10.2026C57.8002 10.7882 57.9777 11.4541 57.9777 12.1982C57.9777 12.9433 57.8002 13.6081 57.4472 14.1948C57.0932 14.7804 56.6039 15.2417 55.9811 15.5767C55.3574 15.9026 54.6504 16.065 53.8592 16.065ZM53.8592 14.278C54.4177 14.278 54.873 14.0925 55.227 13.7205C55.59 13.3384 55.7715 12.831 55.7715 12.1982C55.7715 11.5654 55.59 11.063 55.227 10.691C54.873 10.3099 54.4177 10.1184 53.8592 10.1184C53.3006 10.1184 52.8403 10.3099 52.4773 10.691C52.1143 11.063 51.9328 11.5654 51.9328 12.1982C51.9328 12.832 52.1143 13.3384 52.4773 13.7205C52.8403 14.0925 53.3006 14.278 53.8592 14.278ZM64.2764 15.5907C64.0628 15.7481 63.7971 15.8695 63.4812 15.9537C63.1603 16.0299 62.8323 16.067 62.5034 16.065C61.6099 16.065 60.917 15.8374 60.4236 15.3811C59.9402 14.9248 59.6975 14.255 59.6975 13.3715V10.2858H58.5393V8.61112H59.6975V6.78199H61.8757V8.61112H63.7459V10.2858H61.8757V13.3434C61.8757 13.6593 61.9549 13.906 62.1123 14.0825C62.2798 14.2509 62.5135 14.3342 62.8103 14.3342C63.1553 14.3342 63.4481 14.2409 63.6898 14.0554L64.2764 15.5907ZM65.4988 8.44365H67.6769V15.9537H65.4988V8.44365ZM66.5879 7.39671C66.1878 7.39671 65.8619 7.28039 65.6101 7.04773C65.3645 6.82812 65.2271 6.51123 65.2341 6.1823C65.2341 5.83834 65.3594 5.54853 65.6101 5.31687C65.8619 5.08322 66.1878 4.9679 66.5879 4.9679C66.988 4.9679 67.3139 5.07921 67.5646 5.30284C67.8163 5.52546 67.9417 5.80525 67.9417 6.14019C67.9417 6.5032 67.8163 6.80605 67.5646 7.04773C67.3139 7.28039 66.988 7.39671 66.5879 7.39671ZM77.0543 12.2263C77.0543 12.2543 77.0402 12.4499 77.0121 12.8129H71.3312C71.4335 13.2782 71.6752 13.6452 72.0572 13.915C72.4383 14.1848 72.9126 14.3201 73.4802 14.3201C73.8713 14.3201 74.2163 14.264 74.5141 14.1527C74.832 14.0243 75.1208 13.8348 75.3655 13.5941L76.5238 14.8506C75.8168 15.6599 74.7829 16.065 73.4251 16.065C72.5777 16.065 71.8286 15.9026 71.1778 15.5767C70.5259 15.2417 70.0235 14.7804 69.6695 14.1948C69.3165 13.6081 69.139 12.9433 69.139 12.1982C69.139 11.4631 69.3115 10.8023 69.6555 10.2166C69.9985 9.63198 70.4959 9.15264 71.0935 8.83374C71.7083 8.4988 72.3922 8.33133 73.1453 8.33133C73.8814 8.33133 74.5462 8.48978 75.1419 8.80667C75.7305 9.11654 76.2159 9.59187 76.5378 10.1745C76.8818 10.7602 77.0543 11.4451 77.0543 12.2263ZM73.1593 9.97896C72.667 9.97896 72.2518 10.1184 71.9168 10.3981C71.5819 10.6769 71.3773 11.058 71.3031 11.5423H75.0025C74.9283 11.068 74.7227 10.691 74.3878 10.4112C74.0528 10.1234 73.6437 9.97896 73.1593 9.97896ZM83.0691 8.33133C83.9998 8.33133 84.7489 8.61112 85.3165 9.16969C85.8931 9.72725 86.1819 10.5556 86.1819 11.6537V15.9537H84.0038V11.9886C84.0038 11.3929 83.8744 10.9517 83.6137 10.6629C83.3529 10.365 82.9759 10.2166 82.4825 10.2166C81.934 10.2166 81.4967 10.3881 81.1698 10.7331C80.8449 11.068 80.6814 11.5704 80.6814 12.2403V15.9537H78.5043V8.44365H80.5842V9.32312C80.881 9.00121 81.249 8.75252 81.6592 8.59708C82.0874 8.41958 82.5577 8.33133 83.0691 8.33133ZM93 15.5907C92.7854 15.7481 92.5207 15.8695 92.2038 15.9537C91.8969 16.0279 91.571 16.065 91.227 16.065C90.3335 16.065 89.6406 15.8374 89.1472 15.3811C88.6628 14.9248 88.4212 14.255 88.4212 13.3715V10.2858H87.2629V8.61112H88.4212V6.78199H90.5993V8.61112H92.4695V10.2858H90.5993V13.3434C90.5993 13.6593 90.6775 13.906 90.8359 14.0825C91.0034 14.2509 91.2361 14.3342 91.5339 14.3342C91.8779 14.3342 92.1717 14.2409 92.4134 14.0554L93 15.5907Z" fill="#181D27"/>
</g>
<defs>
<clipPath id="clip0_401_81">
<rect width="93" height="21.9366" fill="white"/>
</clipPath>
</defs>
</svg>
